<mxfile host="app.diagrams.net" agent="Mozilla/5.0 (Windows NT 10.0; Win64; x64) AppleWebKit/537.36 (KHTML, like Gecko) Chrome/134.0.0.0 Safari/537.36 Edg/134.0.0.0" version="26.2.3">
  <diagram name="Page-1" id="58cdce13-f638-feb5-8d6f-7d28b1aa9fa0">
    <mxGraphModel dx="3575" dy="1165" grid="1" gridSize="10" guides="1" tooltips="1" connect="1" arrows="1" fold="1" page="1" pageScale="1" pageWidth="1100" pageHeight="850" background="none" math="0" shadow="0">
      <root>
        <mxCell id="0" />
        <mxCell id="1" parent="0" />
        <mxCell id="3cde6dad864a17aa-10" style="edgeStyle=elbowEdgeStyle;html=1;labelBackgroundColor=none;endArrow=open;endSize=8;strokeColor=#ff0000;fontFamily=Verdana;fontSize=12;align=left;entryX=0.5;entryY=0;entryDx=0;entryDy=0;exitX=1;exitY=0.5;exitDx=0;exitDy=0;" parent="1" source="382b91b5511bd0f7-8" target="3cde6dad864a17aa-1" edge="1">
          <mxGeometry relative="1" as="geometry">
            <mxPoint x="980" y="280" as="sourcePoint" />
            <Array as="points">
              <mxPoint x="1300" y="370" />
              <mxPoint x="1340" y="320" />
            </Array>
          </mxGeometry>
        </mxCell>
        <mxCell id="382b91b5511bd0f7-8" value="Disconnected" style="rounded=1;whiteSpace=wrap;html=1;arcSize=24;fillColor=#ffffc0;strokeColor=#ff0000;shadow=0;comic=0;labelBackgroundColor=none;fontFamily=Verdana;fontSize=12;fontColor=#000000;align=center;" parent="1" vertex="1">
          <mxGeometry x="670" y="250" width="120" height="60" as="geometry" />
        </mxCell>
        <mxCell id="3cde6dad864a17aa-9" style="edgeStyle=elbowEdgeStyle;html=1;labelBackgroundColor=none;endArrow=open;endSize=8;strokeColor=#ff0000;fontFamily=Verdana;fontSize=12;align=left;entryX=0.5;entryY=0;entryDx=0;entryDy=0;" parent="1" source="2a3bc250acf0617d-3" target="382b91b5511bd0f7-8" edge="1">
          <mxGeometry relative="1" as="geometry">
            <Array as="points">
              <mxPoint x="730" y="210" />
            </Array>
          </mxGeometry>
        </mxCell>
        <mxCell id="2a3bc250acf0617d-3" value="" style="ellipse;html=1;shape=startState;fillColor=#000000;strokeColor=#ff0000;rounded=1;shadow=0;comic=0;labelBackgroundColor=none;fontFamily=Verdana;fontSize=12;fontColor=#000000;align=center;direction=south;" parent="1" vertex="1">
          <mxGeometry x="120" y="130" width="30" height="30" as="geometry" />
        </mxCell>
        <mxCell id="3cde6dad864a17aa-11" style="edgeStyle=elbowEdgeStyle;html=1;labelBackgroundColor=none;endArrow=open;endSize=8;strokeColor=#ff0000;fontFamily=Verdana;fontSize=12;align=left;exitX=0.5;exitY=1;exitDx=0;exitDy=0;entryX=1;entryY=0.5;entryDx=0;entryDy=0;" parent="1" source="3cde6dad864a17aa-1" target="3cde6dad864a17aa-2" edge="1">
          <mxGeometry relative="1" as="geometry">
            <mxPoint x="980" y="630" as="targetPoint" />
            <Array as="points">
              <mxPoint x="1300" y="550" />
            </Array>
          </mxGeometry>
        </mxCell>
        <mxCell id="3cde6dad864a17aa-1" value="Connected" style="rounded=1;whiteSpace=wrap;html=1;arcSize=24;fillColor=#ffffc0;strokeColor=#ff0000;shadow=0;comic=0;labelBackgroundColor=none;fontFamily=Verdana;fontSize=12;fontColor=#000000;align=center;" parent="1" vertex="1">
          <mxGeometry x="1240" y="410" width="120" height="60" as="geometry" />
        </mxCell>
        <mxCell id="3cde6dad864a17aa-2" value="Transition" style="rounded=1;whiteSpace=wrap;html=1;arcSize=24;fillColor=#ffffc0;strokeColor=#ff0000;shadow=0;comic=0;labelBackgroundColor=none;fontFamily=Verdana;fontSize=12;fontColor=#000000;align=center;" parent="1" vertex="1">
          <mxGeometry x="670" y="600" width="120" height="60" as="geometry" />
        </mxCell>
        <mxCell id="69JuwbPVkonq4QI5BEVl-3" value="Reconnected" style="rounded=1;whiteSpace=wrap;html=1;arcSize=24;fillColor=#ffffc0;strokeColor=#ff0000;shadow=0;comic=0;labelBackgroundColor=none;fontFamily=Verdana;fontSize=12;fontColor=#000000;align=center;" vertex="1" parent="1">
          <mxGeometry x="190" y="410" width="120" height="60" as="geometry" />
        </mxCell>
        <mxCell id="69JuwbPVkonq4QI5BEVl-4" style="edgeStyle=elbowEdgeStyle;html=1;labelBackgroundColor=none;endArrow=open;endSize=8;strokeColor=#ff0000;fontFamily=Verdana;fontSize=12;align=left;exitX=0;exitY=0.5;exitDx=0;exitDy=0;entryX=0.5;entryY=1;entryDx=0;entryDy=0;" edge="1" parent="1" source="3cde6dad864a17aa-2" target="69JuwbPVkonq4QI5BEVl-3">
          <mxGeometry relative="1" as="geometry">
            <mxPoint x="480" y="510" as="sourcePoint" />
            <mxPoint x="120" y="670" as="targetPoint" />
            <Array as="points">
              <mxPoint x="250" y="560" />
            </Array>
          </mxGeometry>
        </mxCell>
        <mxCell id="69JuwbPVkonq4QI5BEVl-5" style="edgeStyle=elbowEdgeStyle;html=1;labelBackgroundColor=none;endArrow=open;endSize=8;strokeColor=#ff0000;fontFamily=Verdana;fontSize=12;align=left;exitX=0.5;exitY=0;exitDx=0;exitDy=0;entryX=0;entryY=0.5;entryDx=0;entryDy=0;" edge="1" parent="1" source="69JuwbPVkonq4QI5BEVl-3" target="382b91b5511bd0f7-8">
          <mxGeometry relative="1" as="geometry">
            <mxPoint x="700" y="370" as="sourcePoint" />
            <mxPoint x="340" y="530" as="targetPoint" />
            <Array as="points">
              <mxPoint x="250" y="370" />
            </Array>
          </mxGeometry>
        </mxCell>
        <mxCell id="69JuwbPVkonq4QI5BEVl-6" value="&lt;b&gt;By default:&lt;/b&gt;&lt;div&gt;_vt := 25 s&lt;/div&gt;&lt;div&gt;_tt := 7 s&lt;/div&gt;&lt;div&gt;TMC := 1&lt;/div&gt;&lt;div&gt;dRSSI := 10 dbm&lt;/div&gt;&lt;div&gt;_t_min_count := 1&lt;/div&gt;&lt;div&gt;RSSI_MIN := -300&lt;/div&gt;" style="text;html=1;align=center;verticalAlign=middle;whiteSpace=wrap;rounded=0;" vertex="1" parent="1">
          <mxGeometry x="40" y="10" width="200" height="120" as="geometry" />
        </mxCell>
        <mxCell id="69JuwbPVkonq4QI5BEVl-7" value="myTimerConnected period := _vt&lt;div&gt;myTimerTransition period := _tt&lt;/div&gt;&lt;div&gt;myTimerReconnected period := _vt&lt;/div&gt;&lt;div&gt;init beaconConnected RSSI_C := RSSI_MIN, MAC_C :None&lt;/div&gt;&lt;div&gt;init beaconTransition&amp;nbsp;&lt;span style=&quot;background-color: transparent; color: light-dark(rgb(0, 0, 0), rgb(255, 255, 255));&quot;&gt;RSSI_T := RSSI_MIN,&amp;nbsp;&lt;/span&gt;&lt;span style=&quot;background-color: transparent; color: light-dark(rgb(0, 0, 0), rgb(255, 255, 255));&quot;&gt;MAC_T :None&lt;/span&gt;&lt;/div&gt;&lt;div&gt;initialize mySpeaker&lt;/div&gt;&lt;div&gt;t_count := 0&lt;/div&gt;&lt;div&gt;t_min_count := _t_min_count&lt;/div&gt;" style="text;html=1;align=center;verticalAlign=middle;whiteSpace=wrap;rounded=0;" vertex="1" parent="1">
          <mxGeometry x="380" y="30" width="420" height="100" as="geometry" />
        </mxCell>
        <mxCell id="69JuwbPVkonq4QI5BEVl-8" value="BEACON DETECTED with RSSI, MAC;&amp;nbsp;&lt;div&gt;update beaconConnected RSSI_C:=RSSI, MAC_C:=MAC&lt;div&gt;start myTimerConnected&lt;/div&gt;&lt;/div&gt;&lt;div&gt;mySpeaker says &lt;span style=&quot;background-color: rgb(151, 208, 119);&quot;&gt;&quot;Entrando zona de cobertura&quot;&lt;/span&gt;&lt;/div&gt;" style="text;html=1;align=center;verticalAlign=middle;whiteSpace=wrap;rounded=0;" vertex="1" parent="1">
          <mxGeometry x="970" y="210" width="340" height="60" as="geometry" />
        </mxCell>
        <mxCell id="69JuwbPVkonq4QI5BEVl-9" value="BEACON DETECTED with RSSI, MAC &amp;amp;&amp;amp;&lt;div&gt;&lt;div&gt;RSSI - RSSI_C &amp;gt;= dRSSI ;&lt;div&gt;update beaconTransition RSSI_T:=RSSI, MAC_T:=MAC&lt;div&gt;stop myTimerConnected&lt;/div&gt;&lt;/div&gt;&lt;div&gt;start myTimerTransition&lt;/div&gt;&lt;/div&gt;&lt;/div&gt;" style="text;html=1;align=center;verticalAlign=middle;whiteSpace=wrap;rounded=0;" vertex="1" parent="1">
          <mxGeometry x="1140" y="650" width="310" height="90" as="geometry" />
        </mxCell>
        <mxCell id="69JuwbPVkonq4QI5BEVl-10" value="BEACON DETECTED with RSSI,MAC_T &amp;amp;&amp;amp;&amp;nbsp;&lt;div&gt;RSSI - RSSI_C &amp;gt;= dRSSI &amp;amp;&amp;amp;&lt;/div&gt;&lt;div&gt;t_count &amp;lt; t_min_count;&lt;div&gt;update beaconTransition with RSSI_T := RSSI&lt;div&gt;t_count := t_count + 1&lt;/div&gt;&lt;/div&gt;&lt;/div&gt;" style="text;html=1;align=center;verticalAlign=middle;whiteSpace=wrap;rounded=0;" vertex="1" parent="1">
          <mxGeometry x="450" y="670" width="250" height="90" as="geometry" />
        </mxCell>
        <mxCell id="69JuwbPVkonq4QI5BEVl-11" style="edgeStyle=orthogonalEdgeStyle;html=1;labelBackgroundColor=none;endArrow=open;endSize=8;strokeColor=#ff0000;fontFamily=Verdana;fontSize=12;align=left;curved=1;entryX=0;entryY=0.75;entryDx=0;entryDy=0;exitX=0.616;exitY=1;exitDx=0;exitDy=0;exitPerimeter=0;" edge="1" parent="1" target="3cde6dad864a17aa-2">
          <mxGeometry relative="1" as="geometry">
            <mxPoint x="683.9200000000001" y="660" as="sourcePoint" />
            <mxPoint x="670" y="660" as="targetPoint" />
            <Array as="points">
              <mxPoint x="684" y="670" />
              <mxPoint x="650" y="670" />
              <mxPoint x="650" y="645" />
            </Array>
          </mxGeometry>
        </mxCell>
        <mxCell id="69JuwbPVkonq4QI5BEVl-13" value="BEACON DETECTED with RSSI, MAC_T &amp;amp;&amp;amp;&amp;nbsp;&lt;div&gt;RSSI - RSSI_C &amp;gt;= dRSSI &amp;amp;&amp;amp;&lt;/div&gt;&lt;div&gt;t_count = t_min_count;&lt;div&gt;update beaconConnected RSSI_C := RSSI, MAC_C:=MAC_T, &lt;b style=&quot;background-color: rgb(255, 51, 51);&quot;&gt;updated:= false&lt;/b&gt;&lt;/div&gt;&lt;div&gt;update beaconTransition RSSI_T := RSSI_MIN, MAC_C:=None&lt;/div&gt;&lt;div&gt;&lt;div&gt;stop myTimerTransition&lt;/div&gt;&lt;div&gt;start myTimerReconnected&lt;/div&gt;&lt;div&gt;t_count := 0&lt;/div&gt;&lt;/div&gt;&lt;/div&gt;&lt;div&gt;mySpeaker says &lt;span style=&quot;background-color: rgb(126, 166, 224);&quot;&gt;&quot;Actualizando zona de cobertura&quot;&lt;/span&gt;&lt;/div&gt;" style="text;html=1;align=center;verticalAlign=middle;whiteSpace=wrap;rounded=0;" vertex="1" parent="1">
          <mxGeometry x="-180" y="640" width="450" height="130" as="geometry" />
        </mxCell>
        <mxCell id="69JuwbPVkonq4QI5BEVl-14" style="edgeStyle=orthogonalEdgeStyle;html=1;labelBackgroundColor=none;endArrow=open;endSize=8;strokeColor=#ff0000;fontFamily=Verdana;fontSize=12;align=left;curved=1;entryX=1;entryY=0.75;entryDx=0;entryDy=0;exitX=1;exitY=0.5;exitDx=0;exitDy=0;" edge="1" parent="1">
          <mxGeometry relative="1" as="geometry">
            <mxPoint x="1360" y="425" as="sourcePoint" />
            <mxPoint x="1360" y="440" as="targetPoint" />
            <Array as="points">
              <mxPoint x="1360" y="420" />
              <mxPoint x="1380" y="420" />
              <mxPoint x="1380" y="440" />
            </Array>
          </mxGeometry>
        </mxCell>
        <mxCell id="69JuwbPVkonq4QI5BEVl-17" value="BEACON DETECTED with RSSI, MAC_C&lt;span style=&quot;background-color: transparent; color: light-dark(rgb(0, 0, 0), rgb(255, 255, 255));&quot;&gt;;&lt;/span&gt;&lt;div&gt;&lt;div&gt;update beaconConnected RSSI_C:=RSSI&lt;/div&gt;&lt;div&gt;update beaconTransition&lt;span style=&quot;color: light-dark(rgb(0, 0, 0), rgb(255, 255, 255)); background-color: transparent;&quot;&gt;RSSI_T := RSSI_MIN,&amp;nbsp;&lt;/span&gt;&lt;span style=&quot;color: light-dark(rgb(0, 0, 0), rgb(255, 255, 255)); background-color: transparent;&quot;&gt;MAC_T :None&lt;/span&gt;&lt;br&gt;&lt;div&gt;&lt;span style=&quot;background-color: transparent; color: light-dark(rgb(0, 0, 0), rgb(255, 255, 255));&quot;&gt;restart&lt;/span&gt;&lt;span style=&quot;background-color: transparent; color: light-dark(rgb(0, 0, 0), rgb(255, 255, 255));&quot;&gt;&amp;nbsp;&lt;/span&gt;&amp;nbsp;myTimerConnected&lt;/div&gt;&lt;/div&gt;&lt;/div&gt;" style="text;html=1;align=center;verticalAlign=middle;whiteSpace=wrap;rounded=0;" vertex="1" parent="1">
          <mxGeometry x="1380" y="395" width="340" height="90" as="geometry" />
        </mxCell>
        <mxCell id="69JuwbPVkonq4QI5BEVl-19" style="edgeStyle=elbowEdgeStyle;html=1;labelBackgroundColor=none;endArrow=open;endSize=8;strokeColor=#ff0000;fontFamily=Verdana;fontSize=12;align=left;exitX=1;exitY=0.25;exitDx=0;exitDy=0;entryX=0.25;entryY=1;entryDx=0;entryDy=0;" edge="1" parent="1" source="3cde6dad864a17aa-2" target="3cde6dad864a17aa-1">
          <mxGeometry relative="1" as="geometry">
            <mxPoint x="980" y="615" as="sourcePoint" />
            <mxPoint x="750" y="560" as="targetPoint" />
            <Array as="points">
              <mxPoint x="1270" y="600" />
            </Array>
          </mxGeometry>
        </mxCell>
        <mxCell id="69JuwbPVkonq4QI5BEVl-20" style="edgeStyle=orthogonalEdgeStyle;html=1;labelBackgroundColor=none;endArrow=open;endSize=8;strokeColor=#ff0000;fontFamily=Verdana;fontSize=12;align=left;curved=1;exitX=0.915;exitY=0.986;exitDx=0;exitDy=0;exitPerimeter=0;" edge="1" parent="1" source="3cde6dad864a17aa-2">
          <mxGeometry relative="1" as="geometry">
            <mxPoint x="770" y="690" as="sourcePoint" />
            <mxPoint x="760" y="660" as="targetPoint" />
            <Array as="points">
              <mxPoint x="790" y="659" />
              <mxPoint x="790" y="680" />
              <mxPoint x="760" y="680" />
            </Array>
          </mxGeometry>
        </mxCell>
        <mxCell id="69JuwbPVkonq4QI5BEVl-21" value="BEACON DETECTED with RSSI,MAC_C;&lt;div&gt;update beaconConnected RSSI_C:=RSSI, updated :=True&lt;/div&gt;" style="text;html=1;align=center;verticalAlign=middle;whiteSpace=wrap;rounded=0;" vertex="1" parent="1">
          <mxGeometry x="720" y="682.5" width="340" height="45" as="geometry" />
        </mxCell>
        <mxCell id="69JuwbPVkonq4QI5BEVl-23" style="edgeStyle=elbowEdgeStyle;html=1;labelBackgroundColor=none;endArrow=open;endSize=8;strokeColor=#ff0000;fontFamily=Verdana;fontSize=12;align=left;exitX=0.75;exitY=1;exitDx=0;exitDy=0;entryX=0;entryY=0.25;entryDx=0;entryDy=0;" edge="1" parent="1" source="69JuwbPVkonq4QI5BEVl-3" target="3cde6dad864a17aa-2">
          <mxGeometry relative="1" as="geometry">
            <mxPoint x="290" y="498" as="sourcePoint" />
            <mxPoint x="580" y="353" as="targetPoint" />
            <Array as="points">
              <mxPoint x="280" y="540" />
            </Array>
          </mxGeometry>
        </mxCell>
        <mxCell id="69JuwbPVkonq4QI5BEVl-24" value="BEACON DETECTED with RSSI, MAC &amp;amp;&amp;amp;&lt;div&gt;&lt;div&gt;RSSI - RSSI_C &amp;gt;= dRSSI ;&lt;div&gt;update beaconTransition RSSI_T:=RSSI, MAC_T:=MAC&lt;div&gt;stop myTimerReconnected&lt;/div&gt;&lt;/div&gt;&lt;div&gt;start myTimerTransition&lt;/div&gt;&lt;/div&gt;&lt;/div&gt;" style="text;html=1;align=center;verticalAlign=middle;whiteSpace=wrap;rounded=0;" vertex="1" parent="1">
          <mxGeometry x="280" y="530" width="310" height="90" as="geometry" />
        </mxCell>
        <mxCell id="69JuwbPVkonq4QI5BEVl-25" value="BEACON DETECTED with RSSI, MAC_C&lt;span style=&quot;background-color: transparent; color: light-dark(rgb(0, 0, 0), rgb(255, 255, 255));&quot;&gt;;&lt;/span&gt;&lt;div&gt;&lt;div&gt;update beaconConnected RSSI_C:=RSSI&lt;/div&gt;&lt;div&gt;update beaconTransition&lt;span style=&quot;color: light-dark(rgb(0, 0, 0), rgb(255, 255, 255)); background-color: transparent;&quot;&gt;RSSI_T := RSSI_MIN,&amp;nbsp;&lt;/span&gt;&lt;span style=&quot;color: light-dark(rgb(0, 0, 0), rgb(255, 255, 255)); background-color: transparent;&quot;&gt;MAC_T :None&lt;/span&gt;&lt;br&gt;&lt;div&gt;&lt;span style=&quot;background-color: transparent; color: light-dark(rgb(0, 0, 0), rgb(255, 255, 255));&quot;&gt;restart&lt;/span&gt;&lt;span style=&quot;background-color: transparent; color: light-dark(rgb(0, 0, 0), rgb(255, 255, 255));&quot;&gt;&amp;nbsp;&lt;/span&gt;&amp;nbsp;myTimerReconnected&lt;/div&gt;&lt;/div&gt;&lt;/div&gt;" style="text;html=1;align=center;verticalAlign=middle;whiteSpace=wrap;rounded=0;" vertex="1" parent="1">
          <mxGeometry x="-150" y="410" width="340" height="90" as="geometry" />
        </mxCell>
        <mxCell id="69JuwbPVkonq4QI5BEVl-26" style="edgeStyle=orthogonalEdgeStyle;html=1;labelBackgroundColor=none;endArrow=open;endSize=8;strokeColor=#ff0000;fontFamily=Verdana;fontSize=12;align=left;curved=1;entryX=0;entryY=0.5;entryDx=0;entryDy=0;exitX=-0.003;exitY=0.35;exitDx=0;exitDy=0;exitPerimeter=0;" edge="1" parent="1" source="69JuwbPVkonq4QI5BEVl-3" target="69JuwbPVkonq4QI5BEVl-3">
          <mxGeometry relative="1" as="geometry">
            <mxPoint x="150" y="434.97" as="sourcePoint" />
            <mxPoint x="150" y="449.97" as="targetPoint" />
            <Array as="points">
              <mxPoint x="190" y="420" />
              <mxPoint x="170" y="420" />
              <mxPoint x="170" y="440" />
            </Array>
          </mxGeometry>
        </mxCell>
        <mxCell id="69JuwbPVkonq4QI5BEVl-29" style="edgeStyle=elbowEdgeStyle;html=1;labelBackgroundColor=none;endArrow=open;endSize=8;strokeColor=#ff0000;fontFamily=Verdana;fontSize=12;align=left;exitX=0.25;exitY=0;exitDx=0;exitDy=0;entryX=1;entryY=0.75;entryDx=0;entryDy=0;" edge="1" parent="1" source="3cde6dad864a17aa-1" target="382b91b5511bd0f7-8">
          <mxGeometry relative="1" as="geometry">
            <mxPoint x="800" y="625" as="sourcePoint" />
            <mxPoint x="1280" y="480" as="targetPoint" />
            <Array as="points">
              <mxPoint x="1270" y="330" />
            </Array>
          </mxGeometry>
        </mxCell>
        <mxCell id="69JuwbPVkonq4QI5BEVl-30" value="myTimerConnected finishes&lt;span style=&quot;background-color: transparent; color: light-dark(rgb(0, 0, 0), rgb(255, 255, 255));&quot;&gt;;&lt;/span&gt;&lt;div&gt;&lt;div&gt;update beaconConnected&amp;nbsp;&lt;span style=&quot;background-color: transparent; color: light-dark(rgb(0, 0, 0), rgb(255, 255, 255));&quot;&gt;&amp;nbsp;&lt;/span&gt;&lt;span style=&quot;background-color: transparent; color: light-dark(rgb(0, 0, 0), rgb(255, 255, 255));&quot;&gt;RSSI_C := RSSI_MIN, MAC_C :None&lt;/span&gt;&lt;/div&gt;&lt;div&gt;mySpeaker says &lt;span style=&quot;background-color: rgb(255, 204, 153);&quot;&gt;&quot;Saliendo zona de cobertura&quot;&lt;/span&gt;&lt;/div&gt;&lt;/div&gt;" style="text;html=1;align=center;verticalAlign=middle;whiteSpace=wrap;rounded=0;" vertex="1" parent="1">
          <mxGeometry x="920" y="300" width="350" height="50" as="geometry" />
        </mxCell>
        <mxCell id="69JuwbPVkonq4QI5BEVl-31" value="myTimerReconnected finishes&lt;span style=&quot;background-color: transparent; color: light-dark(rgb(0, 0, 0), rgb(255, 255, 255));&quot;&gt;;&lt;/span&gt;&lt;div&gt;&lt;div&gt;update beaconConnected&amp;nbsp;&lt;span style=&quot;background-color: transparent; color: light-dark(rgb(0, 0, 0), rgb(255, 255, 255));&quot;&gt;&amp;nbsp;&lt;/span&gt;&lt;span style=&quot;background-color: transparent; color: light-dark(rgb(0, 0, 0), rgb(255, 255, 255));&quot;&gt;RSSI_C := RSSI_MIN, MAC_C :None&lt;/span&gt;&lt;/div&gt;&lt;div&gt;mySpeaker says &lt;span style=&quot;background-color: rgb(255, 204, 153);&quot;&gt;&quot;Saliendo zona de cobertura&quot;&lt;/span&gt;&lt;/div&gt;&lt;/div&gt;" style="text;html=1;align=center;verticalAlign=middle;whiteSpace=wrap;rounded=0;" vertex="1" parent="1">
          <mxGeometry x="250" y="280" width="350" height="50" as="geometry" />
        </mxCell>
        <mxCell id="69JuwbPVkonq4QI5BEVl-33" style="edgeStyle=elbowEdgeStyle;html=1;labelBackgroundColor=none;endArrow=open;endSize=8;strokeColor=#ff0000;fontFamily=Verdana;fontSize=12;align=left;exitX=0.5;exitY=0;exitDx=0;exitDy=0;entryX=0.25;entryY=1;entryDx=0;entryDy=0;" edge="1" parent="1" source="3cde6dad864a17aa-2">
          <mxGeometry relative="1" as="geometry">
            <mxPoint x="250" y="455" as="sourcePoint" />
            <mxPoint x="730" y="310" as="targetPoint" />
            <Array as="points">
              <mxPoint x="730" y="440" />
            </Array>
          </mxGeometry>
        </mxCell>
        <mxCell id="69JuwbPVkonq4QI5BEVl-34" value="myTimerTransition finishes &amp;amp;&amp;amp;&amp;nbsp;&lt;div&gt;&lt;span style=&quot;background-color: transparent; color: light-dark(rgb(0, 0, 0), rgb(255, 255, 255));&quot;&gt;beaconConnected.updated = False;&lt;/span&gt;&lt;div&gt;&lt;div&gt;update beaconConnected&amp;nbsp;&lt;span style=&quot;background-color: transparent; color: light-dark(rgb(0, 0, 0), rgb(255, 255, 255));&quot;&gt;&amp;nbsp;&lt;/span&gt;&lt;span style=&quot;background-color: transparent; color: light-dark(rgb(0, 0, 0), rgb(255, 255, 255));&quot;&gt;RSSI_C := RSSI_MIN, MAC_C :None&lt;/span&gt;&lt;/div&gt;&lt;div&gt;mySpeaker says &lt;span style=&quot;background-color: rgb(255, 204, 153);&quot;&gt;&quot;Saliendo zona de cobertura&quot;&lt;/span&gt;&lt;/div&gt;&lt;/div&gt;&lt;/div&gt;&lt;div&gt;t_count := 0&lt;/div&gt;" style="text;html=1;align=center;verticalAlign=middle;whiteSpace=wrap;rounded=0;" vertex="1" parent="1">
          <mxGeometry x="730" y="400" width="350" height="70" as="geometry" />
        </mxCell>
        <mxCell id="69JuwbPVkonq4QI5BEVl-35" value="myTimerTransition finishes &amp;amp;&amp;amp;&amp;nbsp;&lt;div&gt;&lt;span style=&quot;background-color: transparent; color: light-dark(rgb(0, 0, 0), rgb(255, 255, 255));&quot;&gt;beaconConnected.updated = True;&lt;/span&gt;&lt;div&gt;beaconConnected.updated := False&lt;/div&gt;&lt;/div&gt;&lt;div&gt;start myTimerConnected&lt;/div&gt;&lt;div&gt;t_count := 0&lt;/div&gt;" style="text;html=1;align=center;verticalAlign=middle;whiteSpace=wrap;rounded=0;" vertex="1" parent="1">
          <mxGeometry x="890" y="530" width="350" height="70" as="geometry" />
        </mxCell>
      </root>
    </mxGraphModel>
  </diagram>
</mxfile>
